<svg width="242" height="358" viewBox="0 0 242 358" fill="none" xmlns="http://www.w3.org/2000/svg">
<path d="M98.9651 354.915L96.5079 352.898L89.5132 344.388L87.5043 341.85L82.8919 335.505L74.8582 323.936L68.9076 315.277L59.8366 299.68L55.7481 292.069L50.4767 278.267L48.3252 271.554L46.9286 259.175L46.7891 253.136L49.4166 241.882L51.2149 236.367L58.0165 225.791L61.9018 220.578L72.9525 210.456L78.9996 205.471L94.3747 195.356L122.582 179.893L130.566 175.88L144.446 168.073L151.088 164.207L162.359 156.471L167.733 152.603L176.692 144.714L180.874 140.695L187.598 132.355L190.661 128.11L195.298 119.171L197.393 114.552L200.168 104.64L201.369 99.572L202.505 88.5394L202.385 70.4218L202.094 65.5751L202.034 56.6282L202.041 52.453L202.499 45.3708L202.803 42.1653L203.779 37.768L205.722 35.0125L206.467 35.0137L208.999 37.329L210.413 38.8224L213.984 43.6744L217.703 49.0484L226.178 64.5699L230.266 72.5541L235.981 88.4439L238.429 96.3509L240.938 112.385L241.82 120.364L240.973 136.84L240.14 145.189L235.862 162.479L233.313 171.273L225.455 189.676L221.116 199.063L209.677 218.951L203.547 229.156L188.302 250.828L161.257 285.826L155.28 293.123L143.775 307.494L138.172 314.494L128.311 327.153L123.678 333.11L116.58 342.567L110.228 351.727L108.584 354.409L105.299 356.864L103.509 357.458M97.2814 289.004L100.416 286.922L109.3 279.48L114.079 275.313L125.13 264.892L130.805 259.459L142.604 247.474L148.504 241.444L159.781 229.309L165.234 223.354L174.571 212.409L178.903 207.271L184.956 198.93L188.846 190.959L188.847 190.139L187.282 189.54L186.239 189.464L182.733 190.278L180.719 190.797L175.348 192.95L172.438 194.139L165.275 197.557L161.47 199.415L152.664 204.023L148.038 206.476L137.665 212.2L126.919 218.297L101.172 233.689L96.9185 236.292L90.4166 245.899L87.575 251.188L84.4987 263.336L83.4452 269.373L84.3222 280.409L84.8401 282.871L86.772 287.049L90.9399 291.529L91.8337 292.127L97.2814 289.004Z" fill="#1E824C"/>
<path d="M143.486 8.13219L148.552 10.4516L157.341 15.9083L161.437 18.7481L168.286 25.2455L171.412 28.6056L176.172 35.7707L178.328 39.5021L181 47.2603L182.037 51.2135L182.621 59.2666L182.614 63.3672L180.961 71.5659L179.91 75.6648L176.02 83.7853L167.577 95.6264L164.514 99.0511L160.257 103.443L158.39 105.304L156.152 106.643L155.331 106.939L154.961 105.299L156.312 99.6344L157.885 94.7907L157.528 85.1723L156.865 80.4741L152.256 71.5944L149.43 67.2656L140.943 59.5726L124.108 50.0022L119.34 48.0561L111.59 45.7324L107.863 44.9063L100.78 44.895L97.2007 45.262L89.1445 47.784L73.9985 54.5445L63.4776 59.7466L47.0561 71.5749L39.5902 77.9003L28.9052 92.4964L24.1957 100.243L18.6492 118.426L15.615 150.853L15.6782 157.936L15.3627 168.672L15.0569 173.443L14.0028 179.854L13.4022 182.462L11.6839 184.621L8.10708 183.423L7.06497 182.377L5.06157 176.335L4.17249 172.829L2.62281 162.836L1.88585 157.467L0.936832 144.865L0.373351 124.287L0.389365 114.296L1.16037 98.4165L1.6196 91.0361L3.65125 79.4084L4.77846 73.8929L8.37162 64.8773L15.8472 52.5128L20.2555 46.6298L29.6663 36.2815L34.446 31.2938L44.5245 22.9595L49.6753 19.0163L60.2727 12.6213L65.571 9.64752L76.5379 5.26624L82.0582 3.33659L93.2454 1.11784L98.9132 0.232223L110.171 0.175689L115.763 0.333799L126.943 2.43932L132.533 3.79031L143.486 8.13219Z" fill="#1E824C"/>
<path d="M89.165 123.046C89.165 130.582 96.7018 138.119 104.239 138.119C113.283 138.119 119.312 130.582 119.312 123.046C119.312 114.001 113.283 107.972 104.239 107.972C96.7018 107.972 89.165 114.001 89.165 123.046Z" fill="#1E824C"/>
</svg>
