<svg width="330" height="138" viewBox="0 0 330 138" fill="none" xmlns="http://www.w3.org/2000/svg">
<path d="M239.097 116.079L238.481 115.572L236.725 113.436L236.221 112.799L235.063 111.207L233.047 108.303L231.553 106.13L229.277 102.215L228.251 100.305L226.928 96.841L226.388 95.156L226.037 92.0491L226.002 90.5333L226.662 87.7088L227.113 86.3248L228.82 83.6703L229.795 82.3619L232.569 79.8215L234.086 78.5701L237.945 76.0314L245.025 72.1505L247.029 71.1432L250.513 69.1839L252.18 68.2136L255.008 66.272L256.357 65.301L258.606 63.3211L259.655 62.3123L261.343 60.2192L262.112 59.1538L263.276 56.9101L263.801 55.7508L264.498 53.2631L264.799 51.9911L265.084 49.2221L265.054 44.6748L264.981 43.4584L264.966 41.2128L264.968 40.1649L265.083 38.3874L265.159 37.5828L265.404 36.4792L265.892 35.7876L266.079 35.7879L266.714 36.369L267.069 36.7438L267.965 37.9616L268.899 39.3104L271.026 43.2061L272.052 45.21L273.486 49.1981L274.101 51.1826L274.731 55.2069L274.952 57.2095L274.739 61.3447L274.53 63.4402L273.457 67.7798L272.817 69.9869L270.845 74.6058L269.756 76.9619L266.884 81.9536L265.346 84.5148L261.52 89.954L254.732 98.7382L253.232 100.57L250.344 104.177L248.938 105.933L246.463 109.11L245.3 110.606L243.519 112.979L241.924 115.278L241.512 115.951L240.687 116.568L240.238 116.717M238.675 99.5358L239.462 99.0131L241.691 97.1454L242.891 96.0994L245.664 93.484L247.089 92.1203L250.05 89.1123L251.531 87.5989L254.361 84.5533L255.73 83.0585L258.073 80.3114L259.161 79.022L260.68 76.9286L261.656 74.9279L261.657 74.7221L261.264 74.5717L261.002 74.5526L260.122 74.757L259.617 74.8872L258.268 75.4277L257.538 75.726L255.74 76.5839L254.785 77.0502L252.575 78.2068L251.414 78.8225L248.811 80.2592L246.114 81.7893L239.651 85.6525L238.584 86.3057L236.952 88.717L236.239 90.0445L235.467 93.0935L235.202 94.6088L235.422 97.3786L235.552 97.9963L236.037 99.045L237.083 100.169L237.308 100.32L238.675 99.5358Z" fill="#1E824C"/>
<path d="M248.013 29.041L249.284 29.6232L251.49 30.9927L252.518 31.7055L254.237 33.3362L255.022 34.1796L256.217 35.9779L256.758 36.9144L257.428 38.8616L257.689 39.8538L257.835 41.875L257.834 42.9042L257.419 44.962L257.155 45.9907L256.179 48.0289L254.059 51.0008L253.291 51.8603L252.222 52.9627L251.754 53.4298L251.192 53.7657L250.986 53.8402L250.893 53.4284L251.232 52.0068L251.627 50.7911L251.537 48.377L251.371 47.1978L250.214 44.9691L249.505 43.8826L247.375 41.9518L243.149 39.5498L241.953 39.0614L240.007 38.4781L239.072 38.2708L237.294 38.268L236.396 38.3601L234.374 38.9931L230.573 40.6898L227.932 41.9955L223.81 44.9642L221.937 46.5518L219.255 50.2152L218.073 52.1594L216.681 56.7231L215.919 64.862L215.935 66.6397L215.856 69.3342L215.779 70.5317L215.515 72.1406L215.364 72.7953L214.933 73.3373L214.035 73.0364L213.773 72.774L213.27 71.2575L213.047 70.3776L212.658 67.8695L212.473 66.5219L212.235 63.359L212.094 58.1941L212.098 55.6866L212.291 51.7011L212.407 49.8487L212.916 46.9303L213.199 45.546L214.101 43.2832L215.977 40.1799L217.084 38.7034L219.446 36.1061L220.645 34.8543L223.175 32.7625L224.468 31.7728L227.128 30.1677L228.457 29.4214L231.21 28.3217L232.595 27.8374L235.403 27.2805L236.826 27.0583L239.651 27.0441L241.055 27.0838L243.861 27.6122L245.264 27.9513L248.013 29.041Z" fill="#1E824C"/>
<path d="M230.614 57.9879C230.614 59.8795 232.505 61.7711 234.397 61.7711C236.667 61.7711 238.18 59.8795 238.18 57.9879C238.18 55.7179 236.667 54.2046 234.397 54.2046C232.505 54.2046 230.614 55.7179 230.614 57.9879Z" fill="#1E824C"/>
<path d="M4.93748 104V48.2151H16.6315V94.9913H44.0909V104H4.93748ZM50.3459 55.4048V46.2228H63.0795V55.4048H50.3459ZM51.2988 104V71.6032H45.1486L46.1881 62.9409H62.9928V104H51.2988ZM72.9497 104V62.9409H83.7775L84.2106 66.9256C86.1741 65.4241 88.3107 64.2403 90.6207 63.374C92.9884 62.5078 95.5293 62.0747 98.2435 62.0747C101.131 62.0747 103.354 62.5078 104.913 63.374C106.53 64.2403 107.772 65.4819 108.638 67.0988C110.544 65.5974 112.709 64.3846 115.135 63.4607C117.618 62.5367 120.534 62.0747 123.884 62.0747C128.619 62.0747 132.113 63.3163 134.365 65.7995C136.617 68.2249 137.743 71.9497 137.743 76.9738V104H126.223V78.2731C126.223 75.5589 125.645 73.6244 124.49 72.4694C123.335 71.2567 121.487 70.6503 118.946 70.6503C115.481 70.6503 112.594 71.8919 110.284 74.3751C110.573 75.3568 110.717 76.5407 110.717 77.9266V104H99.8027V78.2731C99.8027 75.7322 99.3696 73.8265 98.5033 72.556C97.6371 71.2856 95.9624 70.6503 93.4792 70.6503C91.7468 70.6503 90.1009 71.1123 88.5417 72.0363C87.0403 72.9025 85.6832 73.9131 84.4705 75.0681V104H72.9497ZM147.306 104V48.2151H159.087L175.459 81.738L191.83 48.2151H203.524V104H191.83V67.7052L178.837 94.3849H172.08L159 67.7052V104H147.306Z" fill="#1E824C"/>
<path d="M282.937 114.71V54.9409H293.072L293.679 58.7523C295.469 57.2509 297.432 56.0959 299.569 55.2874C301.706 54.4789 304.218 54.0747 307.105 54.0747C313.111 54.0747 317.731 55.7205 320.965 59.0122C324.256 62.2461 325.902 67.5589 325.902 74.9507C325.902 82.3425 324.141 87.8575 320.618 91.4956C317.153 95.076 312.418 96.8662 306.412 96.8662C301.792 96.8662 297.865 95.8268 294.632 93.7478V114.71H282.937ZM303.467 88.2906C306.932 88.2906 309.559 87.2223 311.35 85.0856C313.14 82.9489 314.035 79.5995 314.035 75.0374C314.035 70.6485 313.226 67.5012 311.61 65.5955C309.993 63.6321 307.394 62.6503 303.814 62.6503C300.233 62.6503 297.172 63.8919 294.632 66.3751V85.1722C295.844 86.0962 297.115 86.8469 298.443 87.4244C299.829 88.0019 301.504 88.2906 303.467 88.2906Z" fill="#1E824C"/>
</svg>
